<svg xmlns="http://www.w3.org/2000/svg" width="575.737" height="406.77" xmlns:v="https://vecta.io/nano"><style><![CDATA[.B{fill:none}.C{fill:#2e317b}.D{stroke-linejoin:round}.E{fill:#938ffd}.F{fill:#fd5e89}.G{stroke-miterlimit:10}.H{stroke-linecap:round}]]></style><defs><clipPath id="A"><path transform="translate(-18)" fill="#fff" d="M0 0h575.737v406.77H0z"/></clipPath></defs><g transform="translate(18)" clip-path="url(#A)"><g opacity=".4" class="B D"><path d="M81.666 88.478a34.05 34.05 0 0 0-9.329 2.642 26.1 26.1 0 0 0-7.672 5.118 20.7 20.7 0 0 0-4.884 7.331 18.26 18.26 0 0 0-.965 9.293c.28 2.48 1.055 4.877 2.28 7.05 1.102 1.877 2.475 3.582 4.073 5.06a36.32 36.32 0 0 0 5.024 3.872q2.673 1.7 5.047 3.233a30.25 30.25 0 0 1 4.258 3.288c1.19 1.075 2.055 2.46 2.5 4 .223.715.638 1.354 1.2 1.848a2.4 2.4 0 0 0 1.985.578l7.9-1.072c.76-.1 1.448-.497 1.914-1.105a2.32 2.32 0 0 0 .512-2.08 18.23 18.23 0 0 0-2.68-6.89 25.52 25.52 0 0 0-4.386-5.019 36.87 36.87 0 0 0-5.174-3.8q-2.71-1.643-5.04-3.182c-1.416-.916-2.73-1.98-3.923-3.174a6.62 6.62 0 0 1-1.894-3.821c-.377-2.577.537-5.175 2.444-6.95a14.3 14.3 0 0 1 8.494-3.746q8.84-1.2 14.2 7.078c.348.594.796 1.124 1.324 1.566a2.69 2.69 0 0 0 2 .313l8.423-1.143c.6-.07 1.147-.373 1.527-.842a2.17 2.17 0 0 0 .451-1.754 16.2 16.2 0 0 0-3.245-7.132 25.63 25.63 0 0 0-6.648-6.089c-2.807-1.78-5.882-3.097-9.107-3.9a27.33 27.33 0 0 0-10.61-.572zm3.847 59.625a2.87 2.87 0 0 0-2.426 3.189l1.24 9.15c.225 1.542 1.64 2.62 3.187 2.428l8.942-1.212a2.87 2.87 0 0 0 2.428-3.189l-1.24-9.15c-.23-1.54-1.644-2.615-3.19-2.428z" stroke="#938ffd"/></g><path d="M45.384 270.88a2.94 2.94 0 0 1 2.281-2.952l14.368-3.293a51.73 51.73 0 0 1 1.42-8.455l-12.48-7.82c-1.2-.746-1.686-2.23-1.183-3.54a67.91 67.91 0 0 1 14.1-22.49 2.93 2.93 0 0 1 3.7-.478l12.475 7.827a51.85 51.85 0 0 1 6.992-4.961l-3.3-14.37a2.94 2.94 0 0 1 1.662-3.337c8.153-3.66 16.948-5.675 25.88-5.93 1.402-.042 2.637.913 2.95 2.28l3.293 14.368c2.853.237 5.682.713 8.456 1.42l7.825-12.482c.744-1.192 2.228-1.7 3.54-1.188a67.9 67.9 0 0 1 22.488 14.1 2.94 2.94 0 0 1 .471 3.7l-7.824 12.48a51.65 51.65 0 0 1 4.959 6.992l14.368-3.293a2.94 2.94 0 0 1 3.339 1.662 67.77 67.77 0 0 1 5.933 25.881c.04 1.402-.917 2.636-2.283 2.95l-14.366 3.293a52.05 52.05 0 0 1-1.42 8.455l12.477 7.822c1.19.745 1.686 2.226 1.19 3.538-3.175 8.35-7.967 15.993-14.1 22.5-.957 1.03-2.513 1.23-3.7.476l-12.484-7.816a51.42 51.42 0 0 1-6.994 4.961l3.294 14.368a2.94 2.94 0 0 1-1.662 3.337c-8.15 3.67-16.947 5.686-25.88 5.93-1.4.04-2.635-.914-2.948-2.28l-3.293-14.368a51.7 51.7 0 0 1-8.455-1.42l-7.82 12.48a2.93 2.93 0 0 1-3.54 1.184c-8.35-3.176-15.994-7.967-22.49-14.1-1.022-.96-1.222-2.51-.476-3.7l7.827-12.475a51.66 51.66 0 0 1-4.961-6.992l-14.366 3.293a2.94 2.94 0 0 1-3.339-1.66c-3.666-8.15-5.683-16.947-5.933-25.88zm48.532 5.9a21.1 21.1 0 0 0 20.7 12.976h0c6.677-.447 12.736-4.07 16.3-9.74s4.175-12.7 1.67-18.906a21.1 21.1 0 0 0-20.7-12.976c-1.106.08-2.205.245-3.286.494a20.86 20.86 0 0 0-14.672 28.153z" fill="#c2c2ff"/><g opacity=".2" class="E"><path d="M-11.175 365.547a1.89 1.89 0 0 1 .267-2.383l6.79-6.612c-.823-1.646-1.508-3.36-2.046-5.12l-9.47-.124a1.89 1.89 0 0 1-1.833-1.548c-1.047-5.65-.97-11.448.23-17.067.184-.884.97-1.513 1.873-1.5l9.47.128a33.2 33.2 0 0 1 2.181-5.062l-6.612-6.79a1.89 1.89 0 0 1-.2-2.388c3.255-4.735 7.412-8.782 12.232-11.9a1.89 1.89 0 0 1 2.383.267l6.612 6.79a33.25 33.25 0 0 1 5.119-2.046l.125-9.47a1.89 1.89 0 0 1 1.547-1.837c5.65-1.046 11.45-.968 17.068.23a1.9 1.9 0 0 1 1.5 1.876l-.127 9.47a33.36 33.36 0 0 1 5.063 2.182l6.79-6.612c.647-.627 1.647-.71 2.4-.2a43.57 43.57 0 0 1 11.91 12.233c.49.757.377 1.754-.268 2.383l-6.79 6.6a33.53 33.53 0 0 1 2.046 5.119l9.47.125a1.89 1.89 0 0 1 1.835 1.545c1.048 5.65.97 11.45-.227 17.068-.18.887-.97 1.518-1.874 1.5l-9.47-.125a32.94 32.94 0 0 1-2.182 5.062l6.612 6.79c.628.646.712 1.646.2 2.388a43.48 43.48 0 0 1-12.231 11.91 1.89 1.89 0 0 1-2.382-.267l-6.612-6.79c-1.647.823-3.36 1.507-5.12 2.047l-.123 9.468c-.01.903-.66 1.672-1.548 1.833-5.65 1.047-11.45.97-17.068-.23a1.89 1.89 0 0 1-1.5-1.873l.128-9.47a33.19 33.19 0 0 1-5.062-2.181l-6.79 6.6a1.89 1.89 0 0 1-2.39.2 43.5 43.5 0 0 1-11.909-12.232zm28.63-12.983c4.658 3.4 10.958 3.485 15.705.21h0a13.42 13.42 0 0 0 .288-21.737 13.56 13.56 0 0 0-15.707-.206 13.89 13.89 0 0 0-1.641 1.369c-2.813 2.74-4.284 6.577-4.024 10.496s2.225 7.527 5.376 9.872z"/></g><circle cx="26.855" cy="26.855" r="26.855" transform="matrix(-.707107 -.707107 .707107 -.707107 178.184 182.931)" class="C"/><path d="M370.128 386.466a21.07 21.07 0 0 1-18.39 10.792H90.37c-7.632 0-14.668-4.128-18.4-10.792s-3.548-14.82.455-21.317l71.482-116.09a21.06 21.06 0 0 1 25.507-8.6 122.59 122.59 0 0 1 103.263 0 21.06 21.06 0 0 1 25.506 8.6l71.485 116.09c4 6.5 4.173 14.654.45 21.317zM128.075 355.13h26.216v-42.574zm185.962 0l-26.216-42.573v42.573z" fill="#154cce"/><path d="M221.056 261.68h0c-4.964 0-9.724-1.972-13.234-5.48s-5.48-8.27-5.48-13.234v-63.162h37.43v63.162c0 4.964-1.972 9.724-5.482 13.234s-8.27 5.48-13.234 5.48z" fill="#002ca8"/><g class="F"><path d="M221.056 253.788h0c-4.964 0-9.724-1.972-13.234-5.48s-5.48-8.27-5.48-13.234v-63.16h37.43v63.16c0 4.964-1.972 9.724-5.482 13.234s-8.27 5.48-13.234 5.48z"/><path d="M202.34 217.748a18.72 18.72 0 0 0 18.716 18.716 18.72 18.72 0 0 0 18.716-18.716v-41.013h-37.43z" opacity=".5" style="mix-blend-mode:multiply"/></g><path d="M205.282 397.258h-66.638v-.338a33.32 33.32 0 0 1 33.32-33.32h0a33.32 33.32 0 0 1 33.318 33.32z" fill="#002ca8"/><path d="M218.234 220.287h0a39.76 39.76 0 0 1-36.423-42.835l5.043-62.345 79.26 6.414-5.045 62.344a39.76 39.76 0 0 1-42.835 36.422z" class="F"/><g class="C"><ellipse cx="216.036" cy="164.87" rx="2.599" ry="2.942"/><ellipse cx="247.963" cy="164.87" rx="2.599" ry="2.942"/></g><path d="M209.47 187.2a11.32 11.32 0 0 0 18.894 9.8z" fill="#fff"/><path d="M212.818 397.26h-60.83v-.3c0-8.067 3.205-15.803 8.91-21.506s13.44-8.908 21.507-8.908h0c8.067 0 15.803 3.205 21.507 8.91s8.908 13.44 8.908 21.508z" class="F"/><path d="M221.208 397.258H180.77v-.206c.001-11.166 9.052-20.217 20.218-20.218h0a20.22 20.22 0 0 1 20.22 20.218z" fill="#5142b2"/><path d="M428.46 397.26h-184.85a14.59 14.59 0 0 1-14.584-14.585h214.02a14.59 14.59 0 0 1-14.586 14.585z" fill="#7c7efd"/><path d="M447.27 382.672H299.422c-1.98 0-3.85-.903-5.08-2.452s-1.686-3.576-1.237-5.504l22.477-96.53c.683-2.937 3.3-5.016 6.317-5.016h147.85c1.98 0 3.85.903 5.08 2.453s1.686 3.577 1.237 5.504l-22.477 96.528c-.683 2.94-3.303 5.02-6.32 5.017z" fill="#5142b2"/><path d="M452.37 382.672H304.522c-1.98 0-3.85-.903-5.08-2.452s-1.686-3.576-1.237-5.504l22.477-96.53c.683-2.937 3.3-5.016 6.317-5.016h147.846c1.98 0 3.85.903 5.08 2.453s1.686 3.577 1.237 5.504l-22.477 96.528c-.683 2.937-3.3 5.017-6.316 5.017z" class="E"/><circle cx="391.292" cy="327.923" fill="#a6a5fb" r="17.155"/><g class="C"><path d="M222.097 80.07c26.07-3.518 50.54 18.342 54.653 48.824l-94.413 12.74c-4.113-30.483 13.687-58.046 39.76-61.563z"/><path d="M261.287 149.18c-9.87 1.33-18.95-5.592-20.28-15.462l35.747-4.824c.64 4.74-.63 9.542-3.53 13.346s-7.194 6.3-11.935 6.94zm-36.194-5.476c-17.5 7.54-35.425 4.983-40.033-5.716l63.373-27.3c4.6 10.696-5.84 25.483-23.34 33.025z"/></g><path d="M167.104 165.935a14.43 14.43 0 0 0 21.797 15.36 14.43 14.43 0 0 0-4.553-26.274c-7.776-1.748-15.496 3.14-17.244 10.914z" fill="#ff9e9b"/><path d="M228.418 162.83s2.46 15.82 8.4 21.31c-5.7 2.578-6.908 0-6.908 0" stroke="#ff9e9b" stroke-width=".911" opacity=".5" style="mix-blend-mode:multiply" class="B G"/><g class="C"><path d="M247.396 154.63a11.5 11.5 0 0 1 5.216.693 2.16 2.16 0 0 0 2.593-.764h0a1.92 1.92 0 0 0-1.308-2.619c-2.184-.83-4.53-1.142-6.855-.914-1.374.135-2.235 1.232-1.947 2.187h0a2.16 2.16 0 0 0 2.301 1.417zm-32.296 0a11.51 11.51 0 0 0-5.215.693c-.937.386-2.015.068-2.593-.764h0a1.92 1.92 0 0 1 1.308-2.619c2.184-.83 4.53-1.142 6.854-.914 1.374.135 2.237 1.232 1.95 2.187h0a2.16 2.16 0 0 1-2.303 1.417z"/><circle cx="14.403" cy="14.403" transform="matrix(-.907741 -.419531 .419531 -.907741 190.831 129.796)" r="14.403"/><path d="M237.998 112.8c1.736 12.867 13.573 21.9 26.44 20.154s21.9-13.573 20.154-26.44-13.573-21.9-26.44-20.154a23.51 23.51 0 0 0-20.154 26.44zm-63.568 54.793a6.92 6.92 0 0 0 5.238 8.27c3.73.836 7.434-1.507 8.272-5.238s-1.507-7.434-5.238-8.272a6.92 6.92 0 0 0-5.22.906c-1.55.983-2.65 2.54-3.05 4.332z"/></g><path d="M198.06 197.245c-6.716-.782-12.54-5.007-15.366-11.15-2.5-5.475-1.76-11.382-1.344-17.178" stroke="#fff" stroke-width="1.713" class="B D H"/><path d="M196.487 200.407l10.65.832a2.98 2.98 0 0 0 3.2-2.739h0a2.98 2.98 0 0 0-2.739-3.2l-10.65-.83z" class="C"/><path d="M177.1 168.22a4.3 4.3 0 0 0 8.391 1.885 4.3 4.3 0 0 0-6.495-4.576 4.3 4.3 0 0 0-1.896 2.691z" stroke="#fff" stroke-width=".244" class="B D"/><g opacity=".4" stroke="#938ffd" class="B D"><path d="M403.21 216.12l-61.32-27.794 18.127 41.55z"/><g class="H"><path d="M341.9 188.325l-16.846 37.167 61.32 27.794 16.846-37.167"/><path d="M356.38 221.537l-31.337 3.952 16.85-37.164m26.79 38.8l17.68 26.17 16.846-37.167"/></g></g><path d="M3.235 406.136h550.36c2.035 0 3.684-2.064 3.684-4.6h0c0-2.546-1.65-4.612-3.684-4.612H3.235c-2.035 0-3.684 2.066-3.684 4.612h0c0 2.546 1.65 4.6 3.684 4.6z" class="C"/><g class="E"><path d="M498.996 336.977h.138a7.01 7.01 0 0 0 7.01 7.01v.138a7.01 7.01 0 0 0-7.01 7.01h-.138a7.01 7.01 0 0 0-7.012-7.01v-.138c3.872 0 7-3.138 7.012-7zM134.974 69.994h.138c.001 3.872 3.14 7 7.012 7v.138c-3.872 0-7 3.138-7.012 7h-.138a7.01 7.01 0 0 0-7.01-7.01v-.138a7.01 7.01 0 0 0 7.01-7.01zm384.04 254.712a2.17 2.17 0 1 0 2.171-2.171 2.17 2.17 0 0 0-2.17 2.17z"/><circle cx="405.899" cy="18.983" r="2.172"/><path d="M455.57 155.114c.001 1.2.973 2.172 2.173 2.17s2.172-.973 2.17-2.173-.973-2.172-2.173-2.17a2.17 2.17 0 0 0-2.171 2.173z"/><circle cx="150.578" cy="63.612" r="2.172"/><path d="M94.16 50.606a2.17 2.17 0 1 0 2.172-2.171c-1.2 0-2.17.972-2.172 2.17zM38.94 134.42a2.171 2.171 0 1 0 4.342-.003 2.17 2.17 0 1 0-4.342.002z"/></g><path d="M434.037 60.166c.185-.58.754-.95 1.36-.88l6.363.717c.508-1.135 1.1-2.225 1.8-3.26l-3.99-5c-.38-.477-.37-1.156.025-1.62a29.52 29.52 0 0 1 9.018-7.19c.54-.282 1.206-.14 1.585.338l3.988 5c1.162-.44 2.36-.785 3.58-1.028l.718-6.363c.068-.605.554-1.077 1.16-1.128a29.52 29.52 0 0 1 11.461 1.291c.58.185.95.754.88 1.36l-.716 6.363a22.32 22.32 0 0 1 3.261 1.8l5-3.99c.477-.38 1.156-.37 1.622.023a29.49 29.49 0 0 1 7.19 9.016 1.28 1.28 0 0 1-.339 1.585l-5 3.99a22.32 22.32 0 0 1 1.028 3.579l6.363.716a1.28 1.28 0 0 1 1.13 1.163 29.4 29.4 0 0 1-1.293 11.461c-.185.58-.754.95-1.36.88l-6.363-.717c-.51 1.134-1.11 2.225-1.8 3.26l3.99 5a1.28 1.28 0 0 1-.021 1.621 29.5 29.5 0 0 1-9.016 7.19c-.54.285-1.208.143-1.586-.338l-3.99-5c-1.163.442-2.36.786-3.58 1.028l-.716 6.363c-.068.605-.555 1.077-1.16 1.128a29.37 29.37 0 0 1-11.462-1.291 1.28 1.28 0 0 1-.881-1.361l.718-6.363a22.39 22.39 0 0 1-3.261-1.8l-5 3.99a1.27 1.27 0 0 1-1.621-.025c-2.967-2.503-5.4-5.567-7.2-9.016-.282-.54-.14-1.206.336-1.586l5-3.988a22.36 22.36 0 0 1-1.028-3.579l-6.363-.716a1.28 1.28 0 0 1-1.13-1.161c-.33-3.87.1-7.764 1.293-11.462zm19.044 9.4c.216 3.892 2.87 7.22 6.615 8.3h0c2.8.777 5.806.165 8.08-1.648s3.54-4.606 3.403-7.5c-.215-3.893-2.87-7.223-6.618-8.3-.465-.126-.94-.217-1.418-.272-2.637-.296-5.27.58-7.208 2.393s-2.98 4.386-2.856 7.037z" stroke="#d8d8ff" class="B G"/><path d="M372.37 90.4c3.735-16.883 17.455-29.74 34.545-32.37l4.4-.588h4.083l4.4.588c20.126 3.097 35.13 20.185 35.6 40.543s-13.732 38.12-33.694 42.14c-1.787.38-3.625.484-5.447.733a7.93 7.93 0 0 0-.857.181h-4.09l-4.4-.586c-17.856-2.768-31.94-16.647-34.968-34.46l-.58-3.686v-6.72c.325-1.932.585-3.868 1.008-5.775zm14.48 24.923c.37.718 3.793 6.457 5.256 7.863a7.17 7.17 0 0 0 4.875 1.841c.158 0 .313 0 .46-.016 2.064-.147 15.667-4.714 25.013-14.967s12.642-24.22 12.6-26.288c-.038-1.955-.872-3.8-2.308-5.137-1.542-1.34-7.608-4.233-8.32-4.516-1.08-.637-2.47-.356-3.217.65-.433.57-7.44 11.7-7.78 12.984a3.07 3.07 0 0 0 1.176 3.116c.578.522 6.244 4.062 6.49 4.208a1.8 1.8 0 0 1 .331.227c-.007.008-.012.1-.06.278-2.58 6.348-7.338 11.57-13.422 14.722a.77.77 0 0 1-.306.081c-.02-.025-.176-.236-.227-.3-.152-.208-4.2-5.536-4.783-6.07-.805-.9-2.06-1.245-3.212-.884-1.212.438-11.678 8.445-12.215 8.94-.933.84-1.086 2.247-.354 3.267z" fill="#d8d8ff"/><g class="E"><path d="M425.783 21.023h.16a8.2 8.2 0 0 0 8.2 8.2v.163a8.2 8.2 0 0 0-8.2 8.2h-.16a8.2 8.2 0 0 0-8.2-8.2v-.163a8.2 8.2 0 0 0 8.2-8.2zm113.152 102.26h.163a8.2 8.2 0 0 0 8.2 8.2v.16a8.2 8.2 0 0 0-8.2 8.2h-.163a8.2 8.2 0 0 0-8.2-8.2v-.16a8.2 8.2 0 0 0 8.2-8.2zM318.654 23.06a.71.71 0 0 1 .677-.491h7.1l2.194-6.755a.71.71 0 0 1 1.354 0l2.196 6.754h7.1a.71.71 0 0 1 .418 1.286l-5.745 4.174 2.194 6.755a.71.71 0 0 1-1.1.794l-5.745-4.174-5.745 4.174a.71.71 0 0 1-1.1-.794l2.194-6.755-5.745-4.174c-.244-.185-.343-.504-.247-.794zm-32.046 0a.71.71 0 0 1 .677-.491h7.1l2.194-6.755a.71.71 0 0 1 1.354 0l2.196 6.754h7.1a.71.71 0 0 1 .418 1.286l-5.745 4.174 2.194 6.755a.71.71 0 0 1-1.094.794l-5.745-4.174-5.743 4.175a.71.71 0 0 1-1.1-.794l2.194-6.755-5.745-4.174a.71.71 0 0 1-.255-.795zm-32.046 0a.71.71 0 0 1 .677-.491h7.1l2.194-6.755a.71.71 0 0 1 1.354 0l2.195 6.754h7.1a.71.71 0 0 1 .418 1.286l-5.745 4.174 2.194 6.755a.71.71 0 0 1-1.1.794l-5.745-4.174-5.745 4.174a.71.71 0 0 1-1.1-.794l2.2-6.755-5.745-4.174a.71.71 0 0 1-.252-.794z"/><path d="M222.514 23.06a.71.71 0 0 1 .677-.491h7.1l2.194-6.755a.71.71 0 0 1 1.354 0l2.196 6.754h7.1a.71.71 0 0 1 .418 1.286l-5.745 4.174 2.2 6.756a.71.71 0 0 1-1.1.794l-5.745-4.174-5.745 4.174a.71.71 0 0 1-1.1-.794l2.194-6.755-5.745-4.174c-.246-.183-.348-.503-.253-.795z" opacity=".4"/></g></g></svg>