<svg xmlns="http://www.w3.org/2000/svg" width="14.841" height="11.305" fill="#233e63" xmlns:v="https://vecta.io/nano"><path d="M13.537 0H1.305a1.29 1.29 0 0 0-.559.131l6.646 6.646 1.5-1.432L14.096.13a1.29 1.29 0 0 0-.559-.13zM14.7.746L9.804 5.653l4.907 4.907a1.29 1.29 0 0 0 .131-.559V1.3a1.29 1.29 0 0 0-.131-.555zM.13.746a1.29 1.29 0 0 0-.13.559v8.7a1.29 1.29 0 0 0 .131.559l4.907-4.907zm9.06 5.52L7.7 7.7c-.17.17-.445.17-.615 0L5.652 6.267.745 11.174a1.29 1.29 0 0 0 .559.131h12.233a1.29 1.29 0 0 0 .559-.131z"/></svg>